<svg id="logo_fecomercio" xmlns="http://www.w3.org/2000/svg" width="384" height="220" viewBox="0 0 384 220">
  <rect id="Retângulo_908" data-name="Retângulo 908" width="384" height="220" fill="#fff" opacity="0"/>
  <path id="Caminho_982" data-name="Caminho 982" d="M129.2,160.057a12.049,12.049,0,0,1-4.585.644,5.594,5.594,0,0,1-5.48-4.265h16.157c.045-.535.084-.883.084-1.456V154.9c0-5.8-3.252-11.282-11.1-11.282-6.762,0-11.386,4.929-11.386,10.9,0,6.308,4.559,10.747,11.334,10.747a18.994,18.994,0,0,0,4.972-.644Zm-4.836-11.637a4.85,4.85,0,0,1,5.087,4.381h-10.3a5.076,5.076,0,0,1,5.229-4.381" transform="translate(-40.307 -51.275)" fill="#fff"/>
  <path id="Caminho_983" data-name="Caminho 983" d="M239.689,143.59a11.417,11.417,0,0,0-7.419,2.275,11.416,11.416,0,0,0-7.406-2.275c-7.309,0-10.755,4.427-10.755,10.1v11.1h6.762V153.281c.122-2.1.94-4.581,3.993-4.581s3.941,2.481,4.057,4.581v11.514h6.768V153.281c.122-2.1.947-4.581,4-4.581s3.935,2.481,4.051,4.581v11.514h6.7v-11.1C250.443,148.017,246.992,143.59,239.689,143.59Z" transform="translate(-76.343 -51.264)" fill="#fff"/>
  <path id="Caminho_984" data-name="Caminho 984" d="M86.858,138.12v5.515H99.087v5.67H86.858v11.508H80.09V132.45h21.947v5.67Z" transform="translate(-28.629 -47.302)" fill="#fff"/>
  <rect id="Retângulo_909" data-name="Retângulo 909" width="6.73" height="20.741" transform="translate(231.537 92.79)" fill="#fff"/>
  <rect id="Retângulo_910" data-name="Retângulo 910" width="6.73" height="4.601" transform="translate(231.537 85.129)" fill="#fff"/>
  <path id="Caminho_985" data-name="Caminho 985" d="M165.868,160.646a9.652,9.652,0,0,1-1.507.129c-4.205,0-7.618-2.829-7.618-6.314s3.413-6.308,7.618-6.308a9.654,9.654,0,0,1,1.507.122v-4.381a19.825,19.825,0,0,0-2.924-.193c-7.258,0-12.744,4.639-12.744,10.844a10.476,10.476,0,0,0,5.938,9.311,14.644,14.644,0,0,0,6.6,1.54,18.1,18.1,0,0,0,3.13-.245Z" transform="translate(-53.59 -51.303)" fill="#fff"/>
  <path id="Caminho_986" data-name="Caminho 986" d="M187.031,143.49c-6.3,0-11.411,4.858-11.411,10.844s5.113,10.851,11.411,10.851,11.411-4.858,11.411-10.851-5.107-10.844-11.411-10.844m0,16.9c-4.012,0-4.875-2.713-4.875-6.05s.863-6.044,4.875-6.044,4.875,2.706,4.875,6.044-.837,6.05-4.875,6.05" transform="translate(-62.64 -51.228)" fill="#fff"/>
  <path id="Caminho_987" data-name="Caminho 987" d="M346.442,160.646a9.647,9.647,0,0,1-1.507.129c-4.2,0-7.612-2.829-7.612-6.314s3.413-6.308,7.612-6.308a9.658,9.658,0,0,1,1.507.122v-4.381a19.8,19.8,0,0,0-2.917-.193c-7.264,0-12.744,4.639-12.744,10.844a10.482,10.482,0,0,0,5.931,9.311,14.684,14.684,0,0,0,6.607,1.54,18.021,18.021,0,0,0,3.123-.245Z" transform="translate(-117.88 -51.303)" fill="#fff"/>
  <path id="Caminho_988" data-name="Caminho 988" d="M384.225,143.49c-6.3,0-11.4,4.858-11.4,10.844a11.143,11.143,0,0,0,11.4,10.851c6.3,0,11.411-4.858,11.411-10.851s-5.107-10.844-11.411-10.844m0,16.9c-4.006,0-4.868-2.713-4.868-6.05s.863-6.044,4.868-6.044,4.881,2.706,4.881,6.044-.837,6.05-4.881,6.05" transform="translate(-132.847 -51.228)" fill="#fff"/>
  <path id="Caminho_989" data-name="Caminho 989" d="M323.926,143.3s-1-.084-1.79-.084c-6.994,0-11.3,3.866-11.3,8.969v12.474h6.833V152.569c0-2.577.882-3.318,2.344-3.937a11.1,11.1,0,0,1,3.915-.728Z" transform="translate(-110.781 -51.132)" fill="#fff"/>
  <path id="Caminho_990" data-name="Caminho 990" d="M289.316,160.057a12.05,12.05,0,0,1-4.585.644,5.594,5.594,0,0,1-5.48-4.265h16.158c.045-.535.084-.883.084-1.456V154.9c0-5.8-3.252-11.276-11.1-11.276-6.762,0-11.386,4.923-11.386,10.9,0,6.314,4.559,10.754,11.334,10.754a19.085,19.085,0,0,0,4.972-.644Zm-4.843-11.637a4.857,4.857,0,0,1,5.094,4.375h-10.3a5.074,5.074,0,0,1,5.223-4.375" transform="translate(-97.312 -51.275)" fill="#fff"/>
  <path id="Caminho_991" data-name="Caminho 991" d="M286.07,135.74l4.759-7.12,5.525,2.294-5.39,4.826Z" transform="translate(-101.962 -45.94)" fill="#fff"/>
  <path id="Caminho_992" data-name="Caminho 992" d="M477.639,76.149H447.146c-6.685,0-13.524,3.6-16.66,5.863-15.237,10.9-22.726,32.925-22.726,32.925,2.112-3.686,17.658-32.159,38.729-32.159h22.275a11.331,11.331,0,0,1-1.88,6.237c12.094-4.169,10.754-12.887,10.754-12.887" transform="translate(-145.286 -27.27)" fill="#fff"/>
  <path id="Caminho_993" data-name="Caminho 993" d="M474.215,98.325a11.526,11.526,0,0,1-1.185,4.658h0c9.95-.87,14.754-3.866,17.027-6.823a49.509,49.509,0,0,1-15.823,2.159" transform="translate(-168.523 -34.395)" fill="#fff"/>
  <path id="Caminho_994" data-name="Caminho 994" d="M445.24,107.04s-2.157,0-6.15-.116c-16-.367-23.563,11.269-27.26,16.939,3.7-3.866,10.948-11.057,24.027-10.812,10.156.193,13.91-3.093,15.423-6.3a54.711,54.711,0,0,1-6.041.29" transform="translate(-146.735 -38.161)" fill="#fff"/>
  <path id="Caminho_995" data-name="Caminho 995" d="M117.8,204.185h.644v-2.919H117.8c-4.07,0-8.372,1.417-9.525,4.691v-4.684H103.97v8.918s-3.323-3.711-5.255-5.876a8.878,8.878,0,0,0-6.794-3.054v10.354H89.847c-3.181,0-5.4-1.63-5.4-3.9,0-2.049,1.784-3.273,4.508-3.505v-2.925c-4.443.251-8.848,2.21-8.848,6.443,0,4.865,5.017,6.785,9.737,6.8h6.44V206.1l7.58,8.447h4.411v-4.89c1.146,3.486,5.455,4.9,9.525,4.9h.644v-2.919H117.8c-3.22,0-5.467-1.611-5.467-3.9S114.557,204.185,117.8,204.185Z" transform="translate(-28.636 -71.775)" fill="#fff"/>
  <path id="Caminho_996" data-name="Caminho 996" d="M178.346,212.747a6.09,6.09,0,0,1-2.318.335,2.834,2.834,0,0,1-2.775-2.171h8.179c0-.271.045-.445.045-.741v-.039c0-2.964-1.649-5.735-5.622-5.735a5.52,5.52,0,0,0-5.764,5.541c0,3.222,2.312,5.464,5.738,5.464a9.5,9.5,0,0,0,2.518-.322Zm-2.447-5.915a2.46,2.46,0,0,1,2.576,2.229h-5.223a2.576,2.576,0,0,1,2.647-2.229" transform="translate(-60.671 -72.889)" fill="#fff"/>
  <path id="Caminho_997" data-name="Caminho 997" d="M192.961,208.624c-2.318-.477-2.64-.677-2.576-1.192s.824-.934,1.99-.934a6.475,6.475,0,0,1,2.627.593v-2.333a9.45,9.45,0,0,0-2.8-.438c-2.924,0-4.894,1.4-5.049,3.331-.18,2.133,1.475,2.622,4.218,3.183,2.28.457,2.4.805,2.4,1.34s-.605,1.018-1.932.973a9.707,9.707,0,0,1-4.25-1.166v2.693a11.289,11.289,0,0,0,4.244.947c3.078,0,5.19-1.811,5.19-3.763s-1.488-2.7-4.025-3.222" transform="translate(-66.741 -72.864)" fill="#fff"/>
  <path id="Caminho_998" data-name="Caminho 998" d="M210.308,212.96a5.585,5.585,0,0,1-.811.064c-2.28,0-4.134-1.437-4.134-3.222s1.855-3.222,4.134-3.222a4.82,4.82,0,0,1,.811.064V204.4a11.089,11.089,0,0,0-1.584-.1c-3.935,0-6.9,2.358-6.9,5.515a5.322,5.322,0,0,0,3.22,4.729,8.438,8.438,0,0,0,3.581.78,9.861,9.861,0,0,0,1.694-.122Z" transform="translate(-71.967 -72.857)" fill="#fff"/>
  <path id="Caminho_999" data-name="Caminho 999" d="M159.033,206.654c-2.621-.573-3.265-.844-3.265-1.682v-.039c0-.644.644-1.128,1.932-1.128a6.906,6.906,0,0,1,3.619,1.244V202a9.011,9.011,0,0,0-3.574-.7c-3.1,0-5.306,1.553-5.306,3.866v.039c0,2.577,1.971,3.28,5.023,3.943,2.531.554,3.046.921,3.046,1.643v.039c0,.754-.818,1.211-2.183,1.211a7.989,7.989,0,0,1-4.624-1.63l-1.971,2.01a11.072,11.072,0,0,0,6.53,2.133c3.265,0,5.564-1.443,5.564-4v-.039c0-2.249-1.732-3.222-4.8-3.866" transform="translate(-54.135 -71.789)" fill="#fff"/>
  <path id="Caminho_1000" data-name="Caminho 1000" d="M242.042,207.8a2.576,2.576,0,0,1,2.576-2.249,2.435,2.435,0,0,1,2.518,2.249Zm26.751,2.4h0a2.366,2.366,0,0,1-2.247,1.8c-2.576.135-2.673-1.63-1.81-2.171,1.166-.722,4.07-.316,4.07-.316A4.335,4.335,0,0,1,268.793,210.2Zm11.379,1.778h-.187c-2.5,0-4.315-1.6-4.315-3.808v-.052a3.927,3.927,0,0,1,4.141-3.763h.361v-2.539h-.316c-4.031,0-7.18,2.146-7.85,5.155-.283-2.384-1.932-3.769-5.281-3.769h-.811v2.577a5.427,5.427,0,0,1,1.971.329,1.675,1.675,0,0,1,.914,1.546c-.811-.09-1.726-.155-2.518-.18-3.143-.077-4.746.928-5.152,2.577v-1.662c0-2.861-1.745-5.1-5.448-5.1-3.387,0-5.152,1.869-5.416,4.381a5.259,5.259,0,0,0-5.641-4.51,5.63,5.63,0,0,0-5.912,5.509v.258c-.7-1.14-2.247-1.759-4.508-2.249-2.685-.574-3.065-.851-3.065-1.695v-.039c0-.644.689-1.121,2-1.121a6.921,6.921,0,0,1,2.151.406v-2.706a14.116,14.116,0,0,0-2.106-.213c-3.168,0-5.429,1.553-5.429,3.866v.039c0,2.577,2.016,3.28,5.152,3.943,2.576.554,2.84.921,2.84,1.643v.039c0,.754-.844,1.211-2.241,1.211a7.082,7.082,0,0,1-4.34-1.566l-2.022,2.01a10.262,10.262,0,0,0,6.3,2.068c3.22,0,5.558-1.36,5.693-3.782a6.024,6.024,0,0,0,5.8,3.363h.541v-2.41h-.5a2.736,2.736,0,0,1-2.93-2.075h8.191v4.285h3.426v-5.8c.064-1.063.483-2.313,2.029-2.313s2,1.25,2.054,2.313v5.8h3.394v-2.32c.406,1.6,2.054,2.455,4.012,2.455a4.906,4.906,0,0,0,3.613-1.34V214h3.278V209.59c.76,2.861,3.864,4.948,7.728,4.948h.386Z" transform="translate(-80.982 -71.793)" fill="#fff"/>
  <path id="Caminho_1001" data-name="Caminho 1001" d="M85.222,250.459a6.766,6.766,0,0,1,2.7,1.031,2.191,2.191,0,0,1,.869,1.843,2.772,2.772,0,0,1-.283,1.237,3.067,3.067,0,0,1-.773,1,3.734,3.734,0,0,1-1.185.644,4.441,4.441,0,0,1-1.5.245,6.6,6.6,0,0,1-3.677-1.05l.876-.76a5.233,5.233,0,0,0,2.846.773,2.923,2.923,0,0,0,1-.161,2.633,2.633,0,0,0,.779-.451,2.035,2.035,0,0,0,.5-.644,1.689,1.689,0,0,0,.167-.747,1.657,1.657,0,0,0-.116-.644,1.288,1.288,0,0,0-.444-.515,3.217,3.217,0,0,0-.869-.425,10.742,10.742,0,0,0-1.417-.367,15.787,15.787,0,0,1-1.636-.393,4.427,4.427,0,0,1-1.146-.5,1.932,1.932,0,0,1-.644-.722,2.34,2.34,0,0,1-.213-1.057,2.475,2.475,0,0,1,.264-1.121,2.577,2.577,0,0,1,.747-.883,3.8,3.8,0,0,1,1.14-.58A4.79,4.79,0,0,1,84.63,246a6.991,6.991,0,0,1,1.584.168,5.352,5.352,0,0,1,1.333.5v1.289a5.207,5.207,0,0,0-1.462-.664,5.15,5.15,0,0,0-1.513-.219,2.762,2.762,0,0,0-1.7.47,1.444,1.444,0,0,0-.644,1.186,1.212,1.212,0,0,0,.129.6,1.069,1.069,0,0,0,.457.432,3.721,3.721,0,0,0,.908.348C84.121,250.214,84.617,250.33,85.222,250.459Z" transform="translate(-28.97 -87.688)" fill="#fff"/>
  <path id="Caminho_1002" data-name="Caminho 1002" d="M96.758,246.08v.966H95.47v-.966Zm-1.288,2.777h1.288v7.481H95.47Z" transform="translate(-34.105 -87.717)" fill="#fff"/>
  <path id="Caminho_1003" data-name="Caminho 1003" d="M104.045,250.19a3.475,3.475,0,0,1,1.385.284,3.523,3.523,0,0,1,1.932,1.869,3.339,3.339,0,0,1,.283,1.359v4.1h-1.211v-1.463h0v-2.629a2.927,2.927,0,0,0-.155-.934,2.467,2.467,0,0,0-.444-.818,2.182,2.182,0,0,0-1.745-.8,2.234,2.234,0,0,0-1.018.219,2.428,2.428,0,0,0-.741.58,2.578,2.578,0,0,0-.451.818,2.921,2.921,0,0,0-.148.934V257.8H100.51v-4.1a3.332,3.332,0,0,1,.277-1.359,3.606,3.606,0,0,1,3.3-2.152Z" transform="translate(-35.899 -89.178)" fill="#fff"/>
  <path id="Caminho_1004" data-name="Caminho 1004" d="M122.2,245.673v10.515h-1.288v-.947a3.864,3.864,0,0,1-1.288.825,4.288,4.288,0,0,1-1.661.309,4.558,4.558,0,0,1-1.732-.322,4.327,4.327,0,0,1-1.346-.87,3.866,3.866,0,0,1-.869-1.289,3.958,3.958,0,0,1-.309-1.553,3.867,3.867,0,0,1,.309-1.54,4,4,0,0,1,.863-1.289,4.069,4.069,0,0,1,1.333-.863,4.589,4.589,0,0,1,1.719-.316,4.343,4.343,0,0,1,1.681.309,3.941,3.941,0,0,1,1.288.844V245.66ZM118,255.338a3.135,3.135,0,0,0,1.2-.226,2.7,2.7,0,0,0,.927-.644,3.016,3.016,0,0,0,.605-.947,3.223,3.223,0,0,0,.245-1.2,3.34,3.34,0,0,0-.2-1.166,2.642,2.642,0,0,0-.586-.947,2.717,2.717,0,0,0-.914-.644,3.172,3.172,0,0,0-1.217-.225,2.967,2.967,0,0,0-1.211.238,2.828,2.828,0,0,0-1.552,1.591,3.262,3.262,0,0,0-.213,1.173,3.139,3.139,0,0,0,.206,1.16,2.783,2.783,0,0,0,.592.941,2.648,2.648,0,0,0,.927.644,3.173,3.173,0,0,0,1.185.238Z" transform="translate(-40.599 -87.567)" fill="#fff"/>
  <path id="Caminho_1005" data-name="Caminho 1005" d="M131.288,246.08v.966H130v-.966ZM130,248.857h1.288v7.481H130Z" transform="translate(-46.398 -87.717)" fill="#fff"/>
  <path id="Caminho_1006" data-name="Caminho 1006" d="M139.412,257.928a4.855,4.855,0,0,1-.7.045,4.955,4.955,0,0,1-1.764-.309,4.6,4.6,0,0,1-1.417-.831,3.866,3.866,0,0,1-.934-1.231,3.443,3.443,0,0,1-.341-1.5,3.481,3.481,0,0,1,.341-1.5,3.93,3.93,0,0,1,.934-1.25,4.4,4.4,0,0,1,1.417-.851,4.955,4.955,0,0,1,1.764-.309,4.842,4.842,0,0,1,.7.045v.992a3.566,3.566,0,0,0-1.932.148,3.174,3.174,0,0,0-.985.644,2.842,2.842,0,0,0-.644.928,2.811,2.811,0,0,0,0,2.281,2.9,2.9,0,0,0,.644.928,3.065,3.065,0,0,0,1,.644,3.534,3.534,0,0,0,1.288.226,3.059,3.059,0,0,0,.644-.058Z" transform="translate(-47.915 -89.178)" fill="#fff"/>
  <path id="Caminho_1007" data-name="Caminho 1007" d="M147.584,250.145a3.863,3.863,0,0,1,2.576.767,2.849,2.849,0,0,1,.9,2.281v4.588H149.9v-1.134a3.168,3.168,0,0,1-.547.49,4.682,4.682,0,0,1-1.649.7,4.845,4.845,0,0,1-1.024.11,3.863,3.863,0,0,1-1.095-.155,2.853,2.853,0,0,1-.934-.445A2.248,2.248,0,0,1,144,256.6a2.147,2.147,0,0,1-.245-1.037,2.1,2.1,0,0,1,.908-1.836,4.306,4.306,0,0,1,2.46-.644,12.6,12.6,0,0,1,1.5.09,10.737,10.737,0,0,1,1.288.226v-.2a1.889,1.889,0,0,0-.644-1.553,2.755,2.755,0,0,0-1.79-.515,5.145,5.145,0,0,0-1.288.155,8.156,8.156,0,0,0-1.153.406v-1.063a7.178,7.178,0,0,1,1.2-.361,6.384,6.384,0,0,1,1.339-.122Zm2.325,4.1c-.309-.077-.7-.148-1.185-.219a11.1,11.1,0,0,0-1.468-.1,2.768,2.768,0,0,0-1.707.425,1.4,1.4,0,0,0-.547,1.16,1.327,1.327,0,0,0,.547,1.128,2.253,2.253,0,0,0,1.365.393,4.275,4.275,0,0,0,1.1-.148,3.528,3.528,0,0,0,.96-.425,2.417,2.417,0,0,0,.644-.644,1.4,1.4,0,0,0,.258-.831Z" transform="translate(-51.295 -89.16)" fill="#fff"/>
  <path id="Caminho_1008" data-name="Caminho 1008" d="M161.71,257.131h-.644a2.27,2.27,0,0,1-2.531-2.577V248.31h1.256v1.353h1.932v.96h-1.932v3.866c0,1.076.483,1.611,1.449,1.611h.477Z" transform="translate(-56.554 -88.51)" fill="#fff"/>
  <path id="Caminho_1009" data-name="Caminho 1009" d="M168.971,257.974a4.558,4.558,0,0,1-1.7-.309,4.353,4.353,0,0,1-1.339-.831,3.866,3.866,0,0,1-.876-1.231,3.741,3.741,0,0,1,.889-4.259,4.114,4.114,0,0,1,1.352-.844,4.828,4.828,0,0,1,3.4,0,4.178,4.178,0,0,1,1.339.838,3.744,3.744,0,0,1,.889,1.231,3.662,3.662,0,0,1,.316,1.495,3.623,3.623,0,0,1-.322,1.508,4.059,4.059,0,0,1-.9,1.244,4.16,4.16,0,0,1-1.352.85A4.582,4.582,0,0,1,168.971,257.974Zm0-6.817a3.064,3.064,0,0,0-1.191.219,2.577,2.577,0,0,0-.9.644,2.8,2.8,0,0,0-.567.921,3.222,3.222,0,0,0-.193,1.134,3.036,3.036,0,0,0,.212,1.134,2.714,2.714,0,0,0,.586.928,2.982,2.982,0,0,0,.908.644,2.865,2.865,0,0,0,1.172.232,3.071,3.071,0,0,0,1.191-.226,2.627,2.627,0,0,0,.9-.612,2.772,2.772,0,0,0,.567-.915,3.133,3.133,0,0,0,.2-1.134,3.171,3.171,0,0,0-.206-1.141,2.79,2.79,0,0,0-.592-.928,2.66,2.66,0,0,0-.908-.644,2.967,2.967,0,0,0-1.2-.258Z" transform="translate(-58.766 -89.178)" fill="#fff"/>
  <path id="Caminho_1010" data-name="Caminho 1010" d="M182.46,253.555c.316.084.644.18.94.29a3.669,3.669,0,0,1,.844.412,2.028,2.028,0,0,1,.605.586,1.547,1.547,0,0,1,.225.851h0a1.979,1.979,0,0,1-.219.947,2.017,2.017,0,0,1-.644.7,2.835,2.835,0,0,1-.921.438,4.006,4.006,0,0,1-1.127.155,5.15,5.15,0,0,1-1.417-.2,6.632,6.632,0,0,1-1.346-.522v-1.179a5.505,5.505,0,0,0,1.372.7,4.507,4.507,0,0,0,1.443.238,2.13,2.13,0,0,0,1.211-.316.992.992,0,0,0,.477-.863h0a.741.741,0,0,0-.167-.477,1.372,1.372,0,0,0-.444-.348,3.593,3.593,0,0,0-.644-.271l-.766-.213c-.316-.084-.644-.18-.96-.277a3.866,3.866,0,0,1-.869-.393,2,2,0,0,1-.644-.58,1.5,1.5,0,0,1-.238-.857v-.032a1.811,1.811,0,0,1,.213-.87,1.966,1.966,0,0,1,.573-.644,2.756,2.756,0,0,1,.869-.438,3.565,3.565,0,0,1,1.108-.161,4.657,4.657,0,0,1,.985.1,8.3,8.3,0,0,1,.972.258v1.076a4.629,4.629,0,0,0-1.983-.47,1.932,1.932,0,0,0-1.153.309.922.922,0,0,0-.419.767h0a.645.645,0,0,0,.174.451,1.5,1.5,0,0,0,.47.342,4.6,4.6,0,0,0,.644.258Z" transform="translate(-63.903 -89.192)" fill="#fff"/>
  <path id="Caminho_1011" data-name="Caminho 1011" d="M450.209,154.12l-.264-.767a6.92,6.92,0,0,0-1.771-2.8l-.741-.7.863-.522a8.622,8.622,0,0,0,4.308-7.732v-.084c0-5.8-4.547-9.523-11.592-9.523H430.13v28.222h5.564V151.33h2.537c3.252,0,5.467,1.231,6.24,3.466h0l2.2,5.432h5.918l-2.351-6.115Zm-3.22-12.4a6.164,6.164,0,0,1-6.395,6.05h-4.856V135.589h4.714c3.787,0,6.536,2.577,6.536,6.05Z" transform="translate(-153.25 -47.142)" fill="#fff"/>
  <path id="Caminho_1012" data-name="Caminho 1012" d="M480.744,143.368c-5.48-1.289-6.961-1.933-6.961-4.478v-.09c0-1.463,1.288-3.17,4.823-3.17a15.447,15.447,0,0,1,4.843.986v-4.936l-.406-.084a22.031,22.031,0,0,0-4.34-.606c-6.575,0-10.993,3.383-10.993,8.415v.077c0,5.219,3.394,6.914,10.51,8.55,4.875,1.128,6.5,1.933,6.5,4.356v.084c0,2.088-2.054,3.383-5.352,3.383-3.664,0-6.2-1.25-9.183-3.421l-3.523,3.8a20,20,0,0,0,12.564,4.265c7.129,0,11.56-3.325,11.56-8.666v-.084c0-4.394-2.718-6.662-10.04-8.376" transform="translate(-166.255 -46.783)" fill="#fff"/>
</svg>
